<?xml version="1.0" encoding="utf-8"?>
<!-- Generator: Adobe Illustrator 24.3.0, SVG Export Plug-In . SVG Version: 6.00 Build 0)  -->
<svg version="1.1" id="Layer_1" xmlns="http://www.w3.org/2000/svg" xmlns:xlink="http://www.w3.org/1999/xlink" x="0px" y="0px"
	 viewBox="0 0 852.1 660.7" style="enable-background:new 0 0 852.1 660.7;" xml:space="preserve">
<style type="text/css">
	.st0{fill:#FFFFFF;}
</style>
<g>
	<path class="st0" d="M644.4,275.7c-11.9,0-18.3,0-24.8,0c-197.3,0-394.6-0.2-591.9,0.4c-17.6,0.1-24.6-3.7-22.1-22
		c2.3-16.6-7-38.3,3.6-48.8c10.5-10.4,32.1-3.1,48.8-3.1c193.9-0.2,387.9-0.1,581.8-0.1c10.8,0,21.8-1.1,31.8,4
		c10.7,5.4,14.6,3.1,15.3-9.6c1.5-28.4-7.5-52.2-28.8-70.4c-26.7-22.7-56-38-93.2-37.6c-64.2,0.7-128.4-1-192.5-3
		c-16.1-0.5-21.6,4.1-20.4,19.9c0.8,10.7-1,21.6-1.5,32.4c-1.5,28.9-1.4,28.9-31.3,28.2c-43.8-0.9-43.9-0.9-42.5-45.5
		c0.8-23.6,1.8-47.3,3.1-70.9c1.3-24.9,14.9-38.3,40.2-38.1c91.9,1,183.8,1,275.6,4.3c103.5,3.7,186.1,115.8,160.5,215.5
		c-3.4,13.4-1.4,21.2,9.5,30.4c118.9,100.5,74.6,301.6-27.6,364.3c-26.9,16.5-55.1,24.6-86.1,25.1c-117.5,1.8-235.1,3.7-352.6,5.9
		c-10.8,0.2-16-1.8-15.2-14.1c1-14.8,1-29.8-0.3-44.6c-1.1-12.9,3.6-15.5,15.7-15.6c70.9-0.5,141.9-1.8,212.8-3.2
		c47.3-0.9,94.5-2.7,141.8-3.4c22.2-0.3,40.7-8.8,57.1-22.5c54.6-45.7,66.9-160.9,23.4-216.9c-3.3-4.3-7.3-8-10.6-12.3
		c-7.2-9.3-13.5-11.3-22.1-0.8c-6.3,7.7-14.7,13.9-22.6,20.2c-34.7,27.5-71.7,42.8-118.5,42.2c-177.7-2.5-355.4-1.2-533.1-0.6
		c-17.4,0.1-24.8-3.5-22.2-21.9c2.3-16.5-7-38.3,3.6-48.8c10.5-10.5,32.1-3.1,48.8-3.1c167.6-0.2,335.2-1,502.7,0.5
		C593.5,312.6,617.2,299.6,644.4,275.7z"/>
</g>
</svg>
