<?xml version="1.0" encoding="utf-8"?>
<!-- Generator: Adobe Illustrator 24.3.0, SVG Export Plug-In . SVG Version: 6.00 Build 0)  -->
<svg version="1.1" id="Layer_1" xmlns="http://www.w3.org/2000/svg" xmlns:xlink="http://www.w3.org/1999/xlink" x="0px" y="0px"
	 viewBox="0 0 852.13 660.73" style="enable-background:new 0 0 852.13 660.73;" xml:space="preserve">
<style type="text/css">
	.st0{fill:#030F27;}
</style>
<g>
	<path class="st0" d="M644.4,275.73c-11.86,0-18.35,0-24.84,0c-197.31,0-394.62-0.25-591.92,0.42c-17.6,0.06-24.64-3.72-22.1-22.02
		c2.3-16.55-7.01-38.33,3.6-48.78c10.53-10.37,32.13-3.07,48.83-3.09c193.93-0.23,387.86-0.15,581.79-0.13
		c10.77,0,21.75-1.05,31.83,4.03c10.67,5.38,14.59,3.05,15.28-9.6c1.55-28.39-7.51-52.21-28.82-70.39
		c-26.66-22.74-55.98-38.03-93.21-37.63c-64.16,0.7-128.36-1.02-192.51-3c-16.11-0.5-21.59,4.12-20.41,19.91
		c0.8,10.69-0.95,21.57-1.49,32.36c-1.45,28.85-1.44,28.85-31.3,28.25c-43.75-0.88-43.87-0.89-42.45-45.48
		c0.75-23.63,1.84-47.26,3.07-70.88c1.3-24.87,14.92-38.34,40.22-38.06c91.88,1,183.81,0.99,275.61,4.26
		c103.48,3.69,186.13,115.82,160.55,215.5c-3.44,13.41-1.42,21.21,9.51,30.44c118.93,100.48,74.57,301.58-27.64,364.26
		c-26.87,16.48-55.09,24.6-86.13,25.09c-117.54,1.85-235.09,3.69-352.63,5.9c-10.83,0.2-16.02-1.83-15.19-14.13
		c1-14.79,1.03-29.8-0.27-44.56c-1.14-12.94,3.56-15.52,15.74-15.61c70.94-0.52,141.87-1.81,212.8-3.16
		c47.28-0.9,94.55-2.74,141.83-3.36c22.21-0.29,40.7-8.82,57.07-22.52c54.59-45.71,66.9-160.93,23.43-216.94
		c-3.3-4.26-7.27-8-10.56-12.27c-7.17-9.28-13.53-11.27-22.13-0.77c-6.33,7.74-14.69,13.93-22.61,20.22
		c-34.66,27.53-71.65,42.84-118.51,42.2c-177.68-2.45-355.41-1.25-533.12-0.57c-17.42,0.07-24.78-3.45-22.19-21.93
		c2.32-16.54-6.97-38.29,3.57-48.8c10.5-10.47,32.1-3.12,48.79-3.14c167.58-0.25,335.16-0.97,502.72,0.55
		C593.54,312.6,617.22,299.63,644.4,275.73z"/>
</g>
</svg>
